# xmcd CD database file
#
# Track frame offsets:
#	150
#	18214
#	60888
#	104714
#
# Disc length: 4440 seconds
#
# Revision: 1
# Processed by: cddbd v1.5.2PL0 Copyright (c) Steve Scherf et al.
# Submitted via: CDex 1.70beta2
#
DISCID=27115604
DTITLE=Janet Jackson - Just A Little While
DYEAR=2004
DGENRE=Dance
TTITLE0=Just A Little While (Single Radio Edit)
TTITLE1=Just A Little While (Peter Rauhofer Club mix)
TTITLE2=Just A Little While (Maurice's Nu Soul remix)
TTITLE3=DATA
EXTD=YEAR: 2004
EXTT0=
EXTT1=
EXTT2=
EXTT3=
PLAYORDER=
